<svg xmlns="http://www.w3.org/2000/svg" fill="none" viewBox="0 0 505 104">
  <rect x="6" y="22.854" width="77" height="78.146" rx="38.5" fill="url(#skzgw4RU9a)"/>
  <g filter="url(#skzgw4RU9b)">
    <path fill-rule="evenodd" clip-rule="evenodd" d="M52.725 77.54c-.038.938-.079 1.955-.116 3.07 0 0 2.379 8.813-2.378 8.813-4.196 0-2.1-4.953-.894-7.8a39.483 39.483 0 00.502-1.226c.702-1.795 1.003-2.563.392-9.161-9.514 1.469-31.396 0-34.726-19.582C34.74 50.1 43.458 58.564 47.07 61.917c-9.847-3.82-17.509-2.75-16.917-2.547 0-.215 9.09 1.02 18.18 3.566-2.02-7.131-5.326-11.154-7.14-14.22-4.895-7.772-15.719-23.912-19.851-26.294a1412.868 1412.868 0 0117.972 25.312c-1.677-.914-3.59-1.772-5.199-2.608C21.18 38.404 11.01 33.12 12.651 12c23.595 5.483 30.92 20.561 30.92 35.248 0 0 3.246 5.246 4.256 7.029 8.585-11.206 10.857-20.12 10.857-20.12S53.887 44.6 47.574 52.24c.505-7.896 7.267-27.035 19.782-34.855 9.514 21.54-8.562 37.696-17.6 42.591 3.364 7.79 3.258 10.41 2.97 17.564z" fill="url(#skzgw4RU9c)"/>
  </g>
  <path d="M143.328 73.867h-19.519L120.098 85H108.26l20.113-54.031h10.316L158.914 85h-11.838l-3.748-11.133zm-16.514-9.017h13.508l-6.791-20.225-6.717 20.225zm35.263-.223c0-6.16 1.46-11.12 4.379-14.88 2.944-3.761 6.903-5.642 11.875-5.642 4.404 0 7.83 1.51 10.279 4.528l.446-3.785h9.722v38.816c0 3.513-.804 6.568-2.412 9.166-1.583 2.598-3.822 4.577-6.716 5.938-2.895 1.36-6.284 2.041-10.168 2.041-2.944 0-5.814-.594-8.61-1.782-2.795-1.162-4.911-2.671-6.346-4.527l4.75-6.531c2.672 2.993 5.913 4.49 9.723 4.49 2.845 0 5.059-.767 6.643-2.3 1.583-1.51 2.375-3.662 2.375-6.458V81.55c-2.474 2.795-5.727 4.193-9.76 4.193-4.824 0-8.733-1.88-11.727-5.64-2.968-3.786-4.453-8.795-4.453-15.03v-.445zm10.725.78c0 3.636.73 6.493 2.189 8.572 1.46 2.053 3.464 3.08 6.012 3.08 3.266 0 5.604-1.225 7.014-3.674V56.5c-1.435-2.45-3.748-3.674-6.94-3.674-2.573 0-4.601 1.052-6.086 3.154-1.459 2.103-2.189 5.245-2.189 9.426zm57.194-10.503c-1.459-.198-2.746-.297-3.859-.297-4.057 0-6.717 1.373-7.979 4.12V85h-10.724V44.848h10.131l.297 4.787c2.152-3.686 5.133-5.53 8.943-5.53 1.187 0 2.301.161 3.34.483l-.149 10.316zM257.726 85c-.495-.965-.854-2.165-1.076-3.6-2.598 2.895-5.975 4.342-10.131 4.342-3.934 0-7.199-1.138-9.797-3.414-2.573-2.276-3.859-5.146-3.859-8.61 0-4.255 1.571-7.52 4.713-9.796 3.166-2.276 7.731-3.427 13.693-3.451h4.935V58.17c0-1.855-.482-3.34-1.447-4.453-.94-1.114-2.437-1.67-4.49-1.67-1.806 0-3.229.433-4.268 1.299-1.014.866-1.521 2.053-1.521 3.562h-10.725c0-2.325.718-4.478 2.153-6.457s3.463-3.525 6.086-4.639c2.622-1.137 5.566-1.706 8.832-1.706 4.948 0 8.869 1.249 11.763 3.747 2.92 2.474 4.379 5.963 4.379 10.465v17.405c.025 3.81.557 6.692 1.596 8.646V85h-10.836zm-8.869-7.459c1.583 0 3.043-.346 4.379-1.039 1.336-.718 2.325-1.67 2.968-2.858v-6.902h-4.007c-5.369 0-8.226 1.856-8.573 5.567l-.037.63c0 1.336.47 2.437 1.41 3.303.941.866 2.227 1.299 3.86 1.299z" fill="url(#skzgw4RU9d)"/>
  <path d="M320.016 67.856c-.668 5.714-2.784 10.13-6.346 13.248-3.538 3.092-8.251 4.638-14.139 4.638-6.383 0-11.504-2.288-15.363-6.865-3.835-4.577-5.752-10.7-5.752-18.37v-5.194c0-5.023.891-9.439 2.672-13.248 1.806-3.81 4.354-6.73 7.644-8.758 3.291-2.054 7.101-3.08 11.43-3.08 5.74 0 10.341 1.608 13.805 4.824 3.463 3.191 5.48 7.62 6.049 13.285h-7.162c-.619-4.305-1.967-7.422-4.045-9.352-2.054-1.93-4.936-2.894-8.647-2.894-4.552 0-8.127 1.682-10.724 5.047-2.573 3.364-3.86 8.151-3.86 14.361v5.233c0 5.863 1.225 10.526 3.674 13.99 2.449 3.463 5.876 5.195 10.279 5.195 3.959 0 6.989-.89 9.092-2.672 2.128-1.806 3.538-4.935 4.231-9.388h7.162zm15.928-18.147c3.043-3.736 7.002-5.604 11.875-5.604 8.486 0 12.766 4.788 12.84 14.362V85h-6.865V58.43c-.025-2.895-.693-5.035-2.004-6.42-1.286-1.386-3.303-2.078-6.049-2.078-2.226 0-4.181.593-5.863 1.78-1.682 1.188-2.993 2.747-3.934 4.677V85h-6.865V28h6.865v21.709zm52.037 36.033c-5.443 0-9.871-1.781-13.285-5.344-3.415-3.587-5.122-8.374-5.122-14.36v-1.263c0-3.983.755-7.533 2.264-10.65 1.534-3.142 3.662-5.591 6.383-7.348 2.746-1.78 5.715-2.672 8.906-2.672 5.22 0 9.278 1.72 12.172 5.159 2.895 3.438 4.342 8.362 4.342 14.77v2.857H376.44c.099 3.958 1.249 7.162 3.451 9.611 2.226 2.424 5.047 3.637 8.461 3.637 2.424 0 4.478-.495 6.16-1.485 1.682-.99 3.154-2.3 4.416-3.933l4.193 3.265c-3.364 5.17-8.411 7.756-15.14 7.756zm-.854-35.996c-2.771 0-5.096 1.014-6.976 3.043-1.881 2.004-3.043 4.824-3.489 8.461h20.114v-.52c-.198-3.488-1.138-6.184-2.821-8.09-1.682-1.93-3.958-2.894-6.828-2.894zm40.978 30.393c2.449 0 4.589-.742 6.42-2.227 1.83-1.484 2.845-3.34 3.043-5.566h6.494c-.124 2.3-.915 4.49-2.375 6.568-1.46 2.078-3.414 3.736-5.863 4.973a16.756 16.756 0 01-7.719 1.855c-5.468 0-9.822-1.818-13.063-5.455-3.216-3.661-4.824-8.659-4.824-14.992v-1.15c0-3.91.718-7.385 2.152-10.428 1.435-3.043 3.489-5.406 6.161-7.088 2.696-1.682 5.875-2.523 9.537-2.523 4.502 0 8.238 1.348 11.207 4.044 2.993 2.697 4.589 6.198 4.787 10.502h-6.494c-.198-2.597-1.188-4.725-2.969-6.383-1.757-1.682-3.934-2.523-6.531-2.523-3.489 0-6.198 1.262-8.127 3.785-1.905 2.499-2.858 6.123-2.858 10.873v1.3c0 4.625.953 8.188 2.858 10.687 1.905 2.498 4.626 3.748 8.164 3.748zm35.263-13.73l-4.305 4.49V85h-6.865V28h6.865v34.475l3.674-4.416 12.506-13.211h8.349L467.969 61.62 485.411 85h-8.053l-13.99-18.592z" fill="url(#skzgw4RU9e)"/>
  <defs>
    <linearGradient id="skzgw4RU9a" x1="22.192" y1="29.728" x2="60.287" y2="97.204" gradientUnits="userSpaceOnUse">
      <stop stop-color="#B4DFC4"/>
      <stop offset="1" stop-color="#5BB98C"/>
    </linearGradient>
    <linearGradient id="skzgw4RU9c" x1="6.351" y1=".285" x2="61.074" y2="91.301" gradientUnits="userSpaceOnUse">
      <stop stop-color="#28CB7D"/>
      <stop offset=".275" stop-color="#23B873"/>
      <stop offset="1" stop-color="#299764"/>
      <stop offset="1" stop-color="#1FA86A"/>
    </linearGradient>
    <linearGradient id="skzgw4RU9d" x1="190" y1="15" x2="190" y2="104" gradientUnits="userSpaceOnUse">
      <stop stop-color="#2CDD88"/>
      <stop offset="1" stop-color="#1A965F"/>
    </linearGradient>
    <linearGradient id="skzgw4RU9e" x1="380" y1="15" x2="380" y2="104" gradientUnits="userSpaceOnUse">
      <stop stop-color="#2CDD88"/>
      <stop offset="1" stop-color="#1A965F"/>
    </linearGradient>
    <filter id="skzgw4RU9b" x=".477" y="0" width="83.57" height="103.423" filterUnits="userSpaceOnUse" color-interpolation-filters="sRGB">
      <feFlood flood-opacity="0" result="BackgroundImageFix"/>
      <feColorMatrix in="SourceAlpha" values="0 0 0 0 0 0 0 0 0 0 0 0 0 0 0 0 0 0 127 0" result="hardAlpha"/>
      <feOffset dx="1" dy="1"/>
      <feGaussianBlur stdDeviation="6.5"/>
      <feComposite in2="hardAlpha" operator="out"/>
      <feColorMatrix values="0 0 0 0 0.913725 0 0 0 0 0.976471 0 0 0 0 0.933333 0 0 0 0.2 0"/>
      <feBlend in2="BackgroundImageFix" result="effect1_dropShadow"/>
      <feBlend in="SourceGraphic" in2="effect1_dropShadow" result="shape"/>
      <feColorMatrix in="SourceAlpha" values="0 0 0 0 0 0 0 0 0 0 0 0 0 0 0 0 0 0 127 0" result="hardAlpha"/>
      <feOffset dx="1" dy="1"/>
      <feGaussianBlur stdDeviation="1"/>
      <feComposite in2="hardAlpha" operator="arithmetic" k2="-1" k3="1"/>
      <feColorMatrix values="0 0 0 0 0.356863 0 0 0 0 0.72549 0 0 0 0 0.54902 0 0 0 0.56 0"/>
      <feBlend in2="shape" result="effect2_innerShadow"/>
    </filter>
  </defs>
</svg>
